<mxfile host="app.diagrams.net" modified="2023-05-02T03:52:44.137Z" agent="Mozilla/5.0 (Macintosh; Intel Mac OS X 10_15_7) AppleWebKit/537.36 (KHTML, like Gecko) Chrome/112.0.0.0 Safari/537.36" etag="znxik-GmKICaQrmh7EZC" version="21.2.3" type="device" pages="2">
  <diagram name="Page-1" id="KksZGxEFTcR9tVkPzzV8">
    <mxGraphModel dx="734" dy="785" grid="1" gridSize="10" guides="1" tooltips="1" connect="1" arrows="1" fold="1" page="1" pageScale="1" pageWidth="850" pageHeight="1100" math="0" shadow="0">
      <root>
        <mxCell id="0" />
        <mxCell id="1" parent="0" />
        <mxCell id="qHJSWfJmp29omyvkgc2h-36" value="&lt;span style=&quot;font-size: 50px;&quot;&gt;&lt;font style=&quot;font-size: 50px;&quot;&gt;+&lt;/font&gt;&lt;/span&gt;" style="text;html=1;strokeColor=none;fillColor=none;align=center;verticalAlign=middle;whiteSpace=wrap;rounded=0;fontSize=50;fontStyle=1;horizontal=0;fontColor=#FFFFFF;labelBackgroundColor=#000000;" parent="1" vertex="1">
          <mxGeometry x="80" y="306.25000000000006" width="70" height="49.68" as="geometry" />
        </mxCell>
        <mxCell id="hW6bil_wR0B3VefIcvnD-27" value="" style="rounded=1;whiteSpace=wrap;html=1;strokeColor=#004C99;fillColor=#7ED6FFF4;strokeWidth=3;direction=south;" parent="1" vertex="1">
          <mxGeometry x="20" y="150" width="220" height="80" as="geometry" />
        </mxCell>
        <mxCell id="hW6bil_wR0B3VefIcvnD-17" value="" style="rounded=1;whiteSpace=wrap;html=1;strokeColor=#006600;fillColor=#03FC80F4;strokeWidth=3;" parent="1" vertex="1">
          <mxGeometry x="90" y="80" width="80" height="150" as="geometry" />
        </mxCell>
        <mxCell id="hW6bil_wR0B3VefIcvnD-23" value="" style="group" parent="1" vertex="1" connectable="0">
          <mxGeometry x="100" y="160" width="60" height="60" as="geometry" />
        </mxCell>
        <mxCell id="hW6bil_wR0B3VefIcvnD-3" value="" style="rounded=1;whiteSpace=wrap;html=1;strokeWidth=3;" parent="hW6bil_wR0B3VefIcvnD-23" vertex="1">
          <mxGeometry width="60" height="60" as="geometry" />
        </mxCell>
        <mxCell id="hW6bil_wR0B3VefIcvnD-8" value="" style="shape=image;html=1;verticalAlign=top;verticalLabelPosition=bottom;labelBackgroundColor=#ffffff;imageAspect=0;aspect=fixed;image=https://cdn4.iconfinder.com/data/icons/ionicons/512/icon-chevron-down-128.png" parent="hW6bil_wR0B3VefIcvnD-23" vertex="1">
          <mxGeometry x="5" y="5" width="50" height="50" as="geometry" />
        </mxCell>
        <mxCell id="hW6bil_wR0B3VefIcvnD-24" value="" style="group" parent="1" vertex="1" connectable="0">
          <mxGeometry x="100" y="90" width="60" height="60" as="geometry" />
        </mxCell>
        <mxCell id="hW6bil_wR0B3VefIcvnD-2" value="" style="rounded=1;whiteSpace=wrap;html=1;strokeWidth=3;" parent="hW6bil_wR0B3VefIcvnD-24" vertex="1">
          <mxGeometry width="60" height="60" as="geometry" />
        </mxCell>
        <mxCell id="hW6bil_wR0B3VefIcvnD-7" value="" style="shape=image;html=1;verticalAlign=top;verticalLabelPosition=bottom;labelBackgroundColor=#ffffff;imageAspect=0;aspect=fixed;image=https://cdn4.iconfinder.com/data/icons/ionicons/512/icon-chevron-up-128.png" parent="hW6bil_wR0B3VefIcvnD-24" vertex="1">
          <mxGeometry x="2.5" y="2.5" width="55" height="55" as="geometry" />
        </mxCell>
        <mxCell id="hW6bil_wR0B3VefIcvnD-25" value="" style="group" parent="1" vertex="1" connectable="0">
          <mxGeometry x="26" y="160" width="60" height="60" as="geometry" />
        </mxCell>
        <mxCell id="hW6bil_wR0B3VefIcvnD-1" value="" style="rounded=1;whiteSpace=wrap;html=1;strokeWidth=3;" parent="hW6bil_wR0B3VefIcvnD-25" vertex="1">
          <mxGeometry width="60" height="60" as="geometry" />
        </mxCell>
        <mxCell id="hW6bil_wR0B3VefIcvnD-6" value="" style="shape=image;html=1;verticalAlign=top;verticalLabelPosition=bottom;labelBackgroundColor=#ffffff;imageAspect=0;aspect=fixed;image=https://cdn4.iconfinder.com/data/icons/ionicons/512/icon-chevron-left-128.png;container=0;" parent="hW6bil_wR0B3VefIcvnD-25" vertex="1">
          <mxGeometry x="5" y="5" width="50" height="50" as="geometry" />
        </mxCell>
        <mxCell id="hW6bil_wR0B3VefIcvnD-26" value="" style="group" parent="1" vertex="1" connectable="0">
          <mxGeometry x="174" y="160" width="60" height="60" as="geometry" />
        </mxCell>
        <mxCell id="hW6bil_wR0B3VefIcvnD-4" value="" style="rounded=1;whiteSpace=wrap;html=1;strokeWidth=3;container=0;" parent="hW6bil_wR0B3VefIcvnD-26" vertex="1">
          <mxGeometry width="60" height="60" as="geometry" />
        </mxCell>
        <mxCell id="hW6bil_wR0B3VefIcvnD-11" value="" style="shape=image;html=1;verticalAlign=top;verticalLabelPosition=bottom;labelBackgroundColor=#ffffff;imageAspect=0;aspect=fixed;image=https://cdn4.iconfinder.com/data/icons/ionicons/512/icon-chevron-right-128.png;container=0;" parent="hW6bil_wR0B3VefIcvnD-26" vertex="1">
          <mxGeometry x="5" y="5" width="50" height="50" as="geometry" />
        </mxCell>
        <mxCell id="qHJSWfJmp29omyvkgc2h-6" value="" style="group" parent="1" vertex="1" connectable="0">
          <mxGeometry x="110" y="30" width="40" height="40" as="geometry" />
        </mxCell>
        <mxCell id="qHJSWfJmp29omyvkgc2h-3" value="" style="ellipse;whiteSpace=wrap;html=1;aspect=fixed;strokeColor=default;fillColor=#03FC80F4;" parent="qHJSWfJmp29omyvkgc2h-6" vertex="1">
          <mxGeometry width="40" height="40" as="geometry" />
        </mxCell>
        <mxCell id="qHJSWfJmp29omyvkgc2h-4" value="&lt;font color=&quot;#000000&quot;&gt;1&lt;/font&gt;" style="text;html=1;strokeColor=none;fillColor=none;align=center;verticalAlign=middle;whiteSpace=wrap;rounded=0;fontStyle=1;fontColor=#FFFFFF;fontSize=26;" parent="qHJSWfJmp29omyvkgc2h-6" vertex="1">
          <mxGeometry width="40" height="40" as="geometry" />
        </mxCell>
        <mxCell id="qHJSWfJmp29omyvkgc2h-11" value="" style="group" parent="1" vertex="1" connectable="0">
          <mxGeometry x="250" y="170" width="40" height="40" as="geometry" />
        </mxCell>
        <mxCell id="qHJSWfJmp29omyvkgc2h-8" value="" style="ellipse;whiteSpace=wrap;html=1;aspect=fixed;strokeColor=default;fillColor=#7ED6FFF4;" parent="qHJSWfJmp29omyvkgc2h-11" vertex="1">
          <mxGeometry width="40" height="40" as="geometry" />
        </mxCell>
        <mxCell id="qHJSWfJmp29omyvkgc2h-9" value="&lt;font color=&quot;#000000&quot;&gt;2&lt;/font&gt;" style="text;html=1;strokeColor=none;fillColor=none;align=center;verticalAlign=middle;whiteSpace=wrap;rounded=0;fontStyle=1;fontColor=#FFFFFF;fontSize=26;" parent="qHJSWfJmp29omyvkgc2h-11" vertex="1">
          <mxGeometry width="40" height="40" as="geometry" />
        </mxCell>
        <mxCell id="qHJSWfJmp29omyvkgc2h-37" value="" style="group" parent="1" vertex="1" connectable="0">
          <mxGeometry x="26" y="299.68" width="65" height="65" as="geometry" />
        </mxCell>
        <mxCell id="qHJSWfJmp29omyvkgc2h-43" value="" style="rounded=1;whiteSpace=wrap;html=1;strokeWidth=3;container=0;fontStyle=4;strokeColor=none;fillColor=#808080;" parent="qHJSWfJmp29omyvkgc2h-37" vertex="1">
          <mxGeometry x="-5" y="-5" width="70" height="70" as="geometry" />
        </mxCell>
        <mxCell id="qHJSWfJmp29omyvkgc2h-38" value="" style="rounded=1;whiteSpace=wrap;html=1;strokeWidth=3;container=0;" parent="qHJSWfJmp29omyvkgc2h-37" vertex="1">
          <mxGeometry width="60" height="60" as="geometry" />
        </mxCell>
        <mxCell id="qHJSWfJmp29omyvkgc2h-39" value="" style="shape=image;html=1;verticalAlign=top;verticalLabelPosition=bottom;labelBackgroundColor=#ffffff;imageAspect=0;aspect=fixed;image=https://cdn4.iconfinder.com/data/icons/ionicons/512/icon-chevron-right-128.png;container=0;" parent="qHJSWfJmp29omyvkgc2h-37" vertex="1">
          <mxGeometry x="5" y="5" width="50" height="50" as="geometry" />
        </mxCell>
        <mxCell id="qHJSWfJmp29omyvkgc2h-46" value="" style="group" parent="1" vertex="1" connectable="0">
          <mxGeometry x="289.0444859631742" y="266.0044859631742" width="99.45051403682581" height="96.10551403682581" as="geometry" />
        </mxCell>
        <mxCell id="qHJSWfJmp29omyvkgc2h-24" value="" style="shape=mxgraph.arrows.jump-in_arrow_1;html=1;verticalLabelPosition=bottom;verticalAlign=top;strokeWidth=2;strokeColor=#03FC80F4;rotation=-45;" parent="qHJSWfJmp29omyvkgc2h-46" vertex="1">
          <mxGeometry x="49.955514036825804" y="4.925514036825803" width="30.5" height="40" as="geometry" />
        </mxCell>
        <mxCell id="78DWc6FU5cWT8diMejtg-3" value="" style="group" vertex="1" connectable="0" parent="qHJSWfJmp29omyvkgc2h-46">
          <mxGeometry x="3.552713678800501e-15" y="2.0000000000000036" width="99.45051403682577" height="94.10551403682581" as="geometry" />
        </mxCell>
        <mxCell id="qHJSWfJmp29omyvkgc2h-21" value="" style="sketch=0;aspect=fixed;pointerEvents=1;shadow=0;dashed=0;html=1;strokeColor=none;labelPosition=center;verticalLabelPosition=bottom;verticalAlign=top;align=center;fillColor=#03FC80F4;shape=mxgraph.mscae.general.video;rotation=90;" parent="78DWc6FU5cWT8diMejtg-3" vertex="1">
          <mxGeometry x="0.9555140368258002" y="44.60551403682581" width="49" height="50" as="geometry" />
        </mxCell>
        <mxCell id="qHJSWfJmp29omyvkgc2h-22" value="" style="sketch=0;aspect=fixed;pointerEvents=1;shadow=0;dashed=0;html=1;strokeColor=none;labelPosition=center;verticalLabelPosition=bottom;verticalAlign=top;align=center;fillColor=#03FC80F4;shape=mxgraph.mscae.general.video;rotation=-90;" parent="78DWc6FU5cWT8diMejtg-3" vertex="1">
          <mxGeometry x="48.60551403682578" y="43.25551403682579" width="50.33" height="51.36" as="geometry" />
        </mxCell>
        <mxCell id="qHJSWfJmp29omyvkgc2h-23" value="" style="shape=mxgraph.arrows.jump-in_arrow_1;html=1;verticalLabelPosition=bottom;verticalAlign=top;strokeWidth=2;strokeColor=#03FC80F4;rotation=-45;" parent="78DWc6FU5cWT8diMejtg-3" vertex="1">
          <mxGeometry x="9.675514036825799" y="4.925514036825799" width="30.5" height="40" as="geometry" />
        </mxCell>
        <mxCell id="qHJSWfJmp29omyvkgc2h-45" value="" style="rounded=1;whiteSpace=wrap;html=1;strokeWidth=3;container=0;fontStyle=4;strokeColor=none;fillColor=#808080;" parent="1" vertex="1">
          <mxGeometry x="140" y="300" width="126" height="62.179999999999986" as="geometry" />
        </mxCell>
        <mxCell id="qHJSWfJmp29omyvkgc2h-20" value="shift" style="rounded=1;whiteSpace=wrap;html=1;strokeWidth=4;fontSize=24;fontStyle=1" parent="1" vertex="1">
          <mxGeometry x="144.5463917525773" y="307.54588792124196" width="116.90721649484536" height="47.08822415751608" as="geometry" />
        </mxCell>
      </root>
    </mxGraphModel>
  </diagram>
  <diagram id="ZpUBslphaJ4LxkHuTZyB" name="Page-2">
    <mxGraphModel dx="979" dy="1123" grid="1" gridSize="10" guides="1" tooltips="1" connect="1" arrows="1" fold="1" page="1" pageScale="1" pageWidth="850" pageHeight="1100" math="0" shadow="0">
      <root>
        <mxCell id="0" />
        <mxCell id="1" parent="0" />
        <mxCell id="UCMCqpNw2mOp14ZwPy_E-1" value="" style="group" vertex="1" connectable="0" parent="1">
          <mxGeometry x="257.5044859631742" y="90.00448596317415" width="99.4555140368258" height="94.10551403682581" as="geometry" />
        </mxCell>
        <mxCell id="UCMCqpNw2mOp14ZwPy_E-2" value="" style="shape=mxgraph.arrows.jump-in_arrow_1;html=1;verticalLabelPosition=bottom;verticalAlign=top;strokeWidth=2;strokeColor=#03FC80F4;rotation=-45;" vertex="1" parent="UCMCqpNw2mOp14ZwPy_E-1">
          <mxGeometry x="9.675514036825803" y="4.925514036825803" width="30.5" height="40" as="geometry" />
        </mxCell>
        <mxCell id="UCMCqpNw2mOp14ZwPy_E-3" value="&lt;span style=&quot;font-size: 50px;&quot;&gt;&lt;font style=&quot;font-size: 50px;&quot;&gt;+&lt;/font&gt;&lt;/span&gt;" style="text;html=1;strokeColor=none;fillColor=none;align=center;verticalAlign=middle;whiteSpace=wrap;rounded=0;fontSize=50;fontStyle=1;horizontal=0;fontColor=#FFFFFF;labelBackgroundColor=#000000;" vertex="1" parent="1">
          <mxGeometry x="104" y="145" width="70" height="44.84" as="geometry" />
        </mxCell>
        <mxCell id="UCMCqpNw2mOp14ZwPy_E-4" value="" style="group" vertex="1" connectable="0" parent="1">
          <mxGeometry x="50" y="135" width="70" height="60" as="geometry" />
        </mxCell>
        <mxCell id="UCMCqpNw2mOp14ZwPy_E-5" value="" style="rounded=1;whiteSpace=wrap;html=1;strokeWidth=3;container=0;fontStyle=4;strokeColor=none;fillColor=#808080;" vertex="1" parent="UCMCqpNw2mOp14ZwPy_E-4">
          <mxGeometry x="-5" y="-5" width="70" height="70" as="geometry" />
        </mxCell>
        <mxCell id="UCMCqpNw2mOp14ZwPy_E-6" value="" style="rounded=1;whiteSpace=wrap;html=1;strokeWidth=3;container=0;fontStyle=4" vertex="1" parent="UCMCqpNw2mOp14ZwPy_E-4">
          <mxGeometry width="60" height="60" as="geometry" />
        </mxCell>
        <mxCell id="UCMCqpNw2mOp14ZwPy_E-7" value="" style="shape=image;html=1;verticalAlign=top;verticalLabelPosition=bottom;labelBackgroundColor=#ffffff;imageAspect=0;aspect=fixed;image=https://cdn4.iconfinder.com/data/icons/ionicons/512/icon-chevron-right-128.png;container=0;" vertex="1" parent="UCMCqpNw2mOp14ZwPy_E-4">
          <mxGeometry x="5" y="5" width="50" height="50" as="geometry" />
        </mxCell>
        <mxCell id="UCMCqpNw2mOp14ZwPy_E-8" value="" style="group" vertex="1" connectable="0" parent="1">
          <mxGeometry x="177" y="145" width="50" height="50" as="geometry" />
        </mxCell>
        <mxCell id="UCMCqpNw2mOp14ZwPy_E-9" value="" style="rounded=1;whiteSpace=wrap;html=1;strokeWidth=3;container=0;fontStyle=4;strokeColor=none;fillColor=#808080;" vertex="1" parent="UCMCqpNw2mOp14ZwPy_E-8">
          <mxGeometry x="-4.263565891472869" y="-3.846153846153846" width="54.263565891472865" height="53.84615384615385" as="geometry" />
        </mxCell>
        <mxCell id="UCMCqpNw2mOp14ZwPy_E-10" value="" style="rounded=1;whiteSpace=wrap;html=1;strokeWidth=3;container=0;" vertex="1" parent="UCMCqpNw2mOp14ZwPy_E-8">
          <mxGeometry width="46.51162790697675" height="46.15384615384615" as="geometry" />
        </mxCell>
        <mxCell id="UCMCqpNw2mOp14ZwPy_E-11" value="" style="shape=image;html=1;verticalAlign=top;verticalLabelPosition=bottom;labelBackgroundColor=#ffffff;imageAspect=0;aspect=fixed;image=https://cdn0.iconfinder.com/data/icons/phosphor-regular-vol-3/256/option-128.png" vertex="1" parent="UCMCqpNw2mOp14ZwPy_E-8">
          <mxGeometry width="45.38461538461538" height="45.38461538461538" as="geometry" />
        </mxCell>
        <mxCell id="UCMCqpNw2mOp14ZwPy_E-12" value="" style="sketch=0;aspect=fixed;pointerEvents=1;shadow=0;dashed=0;html=1;strokeColor=none;labelPosition=center;verticalLabelPosition=bottom;verticalAlign=top;align=center;fillColor=#03FC80F4;shape=mxgraph.mscae.general.video;rotation=90;" vertex="1" parent="1">
          <mxGeometry x="258.96000000000004" y="145.5" width="49" height="50" as="geometry" />
        </mxCell>
        <mxCell id="UCMCqpNw2mOp14ZwPy_E-13" value="" style="sketch=0;aspect=fixed;pointerEvents=1;shadow=0;dashed=0;html=1;strokeColor=none;labelPosition=center;verticalLabelPosition=bottom;verticalAlign=top;align=center;fillColor=#03FC80F4;shape=mxgraph.mscae.general.video;rotation=-90;" vertex="1" parent="1">
          <mxGeometry x="307.96000000000004" y="145.5" width="49" height="50" as="geometry" />
        </mxCell>
      </root>
    </mxGraphModel>
  </diagram>
</mxfile>
